/* XPM */
static char *poweroff[] = {
/* columns rows colors chars-per-pixel */
"25 25 161 2 ",
"   c #292D3E",
".  c #2D3247",
"X  c #2E3449",
"o  c #2D3B4E",
"O  c #333B56",
"+  c #353F5D",
"@  c #2C4354",
"#  c #2E4858",
"$  c #2F4C61",
"%  c #3A456C",
"&  c #2B5565",
"*  c #2C576B",
"=  c #2A5B6B",
"-  c #384E74",
";  c #345172",
":  c #305E7D",
">  c #2B6374",
",  c #24707E",
"<  c #3E5C94",
"1  c #2D6E86",
"2  c #237483",
"3  c #287382",
"4  c #2A7688",
"5  c #257A8D",
"6  c #366593",
"7  c #366896",
"8  c #257C90",
"9  c #3A6BA3",
"0  c #3F66AF",
"q  c #3C68AF",
"w  c #2D7BAA",
"e  c #3C70AF",
"r  c #3E67B0",
"t  c #3A6CB1",
"y  c #2E7DBA",
"u  c #3474B5",
"i  c #337DB0",
"p  c #3079B8",
"a  c #40548A",
"s  c #425590",
"d  c #425C9C",
"f  c #4260A0",
"g  c #4262AC",
"h  c #4168AC",
"j  c #406EB1",
"k  c #17929F",
"l  c #0E9DAA",
"z  c #1396A3",
"x  c #1A96A6",
"c  c #1598A6",
"v  c #1D9BAF",
"b  c #159EB1",
"n  c #1F97BD",
"m  c #1A9EB8",
"M  c #2882A8",
"N  c #268BAA",
"B  c #2685BE",
"V  c #2A82BC",
"C  c #2688BF",
"Z  c #2C8ABF",
"A  c #0DA2AF",
"S  c #0EA4B3",
"D  c #03AAB7",
"F  c #01ADBD",
"G  c #0FAAB9",
"H  c #10A1B0",
"J  c #16A3B9",
"K  c #12ADBE",
"L  c #1C95C6",
"P  c #159ECB",
"I  c #189AC9",
"U  c #238CC1",
"Y  c #2192C4",
"T  c #2499C3",
"R  c #3292C3",
"E  c #00AFC0",
"W  c #0EAEC4",
"Q  c #0EA4CD",
"!  c #0DA9CF",
"~  c #14A6C3",
"^  c #18A1C2",
"/  c #12A3CD",
"(  c #13ACC4",
")  c #01B1C4",
"_  c #0BB4C5",
"`  c #01B5CB",
"'  c #0CB6CA",
"]  c #01B8CF",
"[  c #0AB8CD",
"{  c #12B3C6",
"}  c #12B7C8",
"|  c #12B9CD",
" . c #06AFD3",
".. c #0CACD1",
"X. c #16ABD0",
"o. c #05B4D6",
"O. c #0AB0D4",
"+. c #01BAD3",
"@. c #09BDD6",
"#. c #02BCD9",
"$. c #12BDD4",
"%. c #10BBD9",
"&. c #25A5CD",
"*. c #33A6CE",
"=. c #34BFCD",
"-. c #22BED1",
";. c #2DBBD8",
":. c #3FBAD7",
">. c #459AC7",
",. c #42A2CB",
"<. c #49A5CD",
"1. c #58A6CD",
"2. c #59ACD0",
"3. c #41B2D3",
"4. c #49B6D5",
"5. c #4BBDD9",
"6. c #57B4D4",
"7. c #55B8D6",
"8. c #5DB9D7",
"9. c #53BFDA",
"0. c #5DBCD8",
"q. c #62AED1",
"w. c #60B6D5",
"e. c #74BFDA",
"r. c #22C1D5",
"t. c #2AC0D1",
"y. c #26C5DC",
"u. c #35C4D4",
"i. c #38C4D5",
"p. c #34C4DA",
"a. c #34C9DE",
"s. c #3CCBDF",
"d. c #49C7D4",
"f. c #46C5DD",
"g. c #4BC1DB",
"h. c #44CBDD",
"j. c #4BCADD",
"k. c #5ECCD7",
"l. c #5CC6DD",
"z. c #54CCDE",
"x. c #5ECFDB",
"c. c #54C3DC",
"v. c #5ED0DE",
"b. c #64CED8",
"n. c #71C7DD",
"m. c #7BC3DB",
"M. c #76CBDF",
"N. c #7BCADF",
"B. c #67D0DB",
"V. c #6BD1DC",
"C. c #45CCE0",
"Z. c #50CBE0",
"A. c #74CEE1",
"S. c #78CDE0",
"D. c #64D3E2",
"F. c #6CD5E3",
"G. c #71D2E2",
"H. c #81BFD9",
"J. c #84C4DB",
"K. c #89C1DA",
"L. c #84DCE7",
/* pixels */
"              . % a f q q e 9 7 ; o               ",
"          . % d g g r t u u p V V w : o           ",
"        O a g 0 r r u u p y V V U U Y M $         ",
"    . # d 0 0 t u u u y V V C U Y Y I P n *       ",
"    O f r t t u u y V V Z U U L L P P / ! J #     ",
"  . < r t u u y y V B >.K.,.L I P / / ....@.b @   ",
"  - r u u p y V B R R 2.J.6.&.&./ ....O.o.#.#.M   ",
"X 9 u u y y y C 1.H.J.w.m.0.N.S.g.O.o.#.#.#.#.K # ",
"- u p y y U U q.e.J.6.7.N.c.c.A.F.Z.#.#.#.#.+.@.4 ",
"7 y y U U U <.e.m.3./ 5.M.g. .p.F.F.a.#.#.+.+.] v ",
"i U U U Y Y e.m.4./ ! g.G.f.#.#.s.F.D.@.+.] ] ] { ",
"Z U U L I *.m.A./ ..O.f.F.C.#.#.@.D.V.y.] ] ` ` ' ",
"U Y L I P :.S.0. .O.#.C.F.C.#.+.+.z.V.i.] ` ` ` ) ",
"T I P / Q :.A.Z.o.#.#.s.L.h.+.+.] j.V.i.` ` ) ) ` ",
"T P / X...;.F.D.#.#.+.%.h.$.+.] ] v.V.t.) ) ) ) K ",
"N ....O.o.%.F.F.y.+.+.+.] ] ] ` t.V.V.[ ) ) ) ) x ",
"1 ..o.#.#.#.C.F.D.$.+.] ] ` ) } V.V.d.) ) ) ) F 3 ",
"# ~ #.#.#.+.@.D.V.F.p.$.[ | u.V.b.b._ ) F F F H # ",
"  8 #.#.+.+.+.@.v.V.V.V.V.V.V.b.k.{ ) F F F F 5   ",
"  o J #.+.+.] ] ] u.v.V.V.V.k.u.) F F F F F z @   ",
"    * W +.] ` ` ` ` ) ' } _ ) F F F F F F A &     ",
"      > W ` ` ` ` ) ) ) ) ) F F F F D F A =       ",
"        * l ` ) ) ) ) ) F F F F F D D z &         ",
"          @ 5 J ) ) F F F F F D D A , @           ",
"              # 2 z J F F F S k , @               "
};
